<?xml version="1.0" encoding="utf-8"?>
<COLLADA xmlns="http://www.collada.org/2005/11/COLLADASchema" version="1.4.1" xmlns:xsi="http://www.w3.org/2001/XMLSchema-instance">
  <asset>
    <contributor>
      <author>Blender User</author>
      <authoring_tool>Blender 3.0.1</authoring_tool>
    </contributor>
    <created>2025-05-25T23:32:15</created>
    <modified>2025-05-25T23:32:15</modified>
    <unit name="meter" meter="1"/>
    <up_axis>Z_UP</up_axis>
  </asset>
  <library_cameras>
    <camera id="Camera-camera" name="Camera">
      <optics>
        <technique_common>
          <perspective>
            <xfov sid="xfov">39.59775</xfov>
            <aspect_ratio>1.777778</aspect_ratio>
            <znear sid="znear">0.1</znear>
            <zfar sid="zfar">100</zfar>
          </perspective>
        </technique_common>
      </optics>
      <extra>
        <technique profile="blender">
          <shiftx sid="shiftx" type="float">0</shiftx>
          <shifty sid="shifty" type="float">0</shifty>
          <dof_distance sid="dof_distance" type="float">10</dof_distance>
        </technique>
      </extra>
    </camera>
  </library_cameras>
  <library_lights>
    <light id="Light-light" name="Light">
      <technique_common>
        <point>
          <color sid="color">1000 1000 1000</color>
          <constant_attenuation>1</constant_attenuation>
          <linear_attenuation>0</linear_attenuation>
          <quadratic_attenuation>0.00111109</quadratic_attenuation>
        </point>
      </technique_common>
      <extra>
        <technique profile="blender">
          <type sid="type" type="int">0</type>
          <flag sid="flag" type="int">0</flag>
          <mode sid="mode" type="int">1</mode>
          <gamma sid="blender_gamma" type="float">1</gamma>
          <red sid="red" type="float">1</red>
          <green sid="green" type="float">1</green>
          <blue sid="blue" type="float">1</blue>
          <shadow_r sid="blender_shadow_r" type="float">0</shadow_r>
          <shadow_g sid="blender_shadow_g" type="float">0</shadow_g>
          <shadow_b sid="blender_shadow_b" type="float">0</shadow_b>
          <energy sid="blender_energy" type="float">1000</energy>
          <dist sid="blender_dist" type="float">29.99998</dist>
          <spotsize sid="spotsize" type="float">75</spotsize>
          <spotblend sid="spotblend" type="float">0.15</spotblend>
          <att1 sid="att1" type="float">0</att1>
          <att2 sid="att2" type="float">1</att2>
          <falloff_type sid="falloff_type" type="int">2</falloff_type>
          <clipsta sid="clipsta" type="float">0.04999995</clipsta>
          <clipend sid="clipend" type="float">30.002</clipend>
          <bias sid="bias" type="float">1</bias>
          <soft sid="soft" type="float">3</soft>
          <bufsize sid="bufsize" type="int">2880</bufsize>
          <samp sid="samp" type="int">3</samp>
          <buffers sid="buffers" type="int">1</buffers>
          <area_shape sid="area_shape" type="int">1</area_shape>
          <area_size sid="area_size" type="float">0.1</area_size>
          <area_sizey sid="area_sizey" type="float">0.1</area_sizey>
          <area_sizez sid="area_sizez" type="float">1</area_sizez>
        </technique>
      </extra>
    </light>
  </library_lights>
  <library_images/>
  <library_geometries>
    <geometry id="base_link-mesh" name="base_link">
      <mesh>
        <source id="base_link-mesh-positions">
          <float_array id="base_link-mesh-positions-array" count="342">-0.00999999 -0.04999995 0.01499998 -0.00999999 -0.01703667 0.004999995 -0.00999999 -0.04999995 -0.01499998 -0.00999999 -0.01703667 -0.004999995 -0.00999999 -0.04309016 -0.02451056 -0.00999999 -0.04587781 -0.02309012 -0.00999999 -0.04951053 0.01809012 -0.00999999 -0.04809015 0.02087783 -0.00999999 -0.04587781 0.02309012 -0.00999999 0.04999995 -0.01499998 -0.00999999 0.01703667 -0.004999995 -0.00999999 0.04999995 0.01499998 -0.00999999 0.01703667 0.004999995 -0.00999999 0.04951053 -0.01809012 -0.00999999 0.04809015 -0.02087783 -0.00999999 0.04587781 -0.02309012 -0.00999999 -0.04809015 -0.02087783 -0.00999999 -0.04951053 -0.01809012 -0.00999999 0.04309016 0.02451056 -0.00999999 0.04587781 0.02309012 -0.00999999 0.04309016 -0.02451056 -0.00999999 0.03999996 -0.02499997 -0.00999999 -0.03999996 -0.02499997 -0.00999999 -0.04309016 0.02451056 -0.00999999 -0.03999996 0.02499997 -0.00999999 0.03999996 0.02499997 -0.00999999 0.04809015 0.02087783 -0.00999999 0.04951053 0.01809012 0 0.04999995 -0.01499998 0 0.04999995 0.01499998 0 -0.03999996 -0.02499997 0 0.03999996 -0.02499997 0 -0.04999995 -0.01499998 0 -0.04999995 0.01499998 0 -0.03999996 0.02499997 0 0.03999996 0.02499997 0 -0.04309016 0.02451056 0 -0.04587781 0.02309012 0 -0.04951053 0.01809012 0 -0.04809015 0.02087783 0 -0.04951053 -0.01809012 0 0.04809015 -0.02087783 0 0.04587781 -0.02309012 0 0.04309016 -0.02451056 0 0.04951053 -0.01809012 0 -0.04809015 -0.02087783 0 -0.04587781 -0.02309012 0 -0.04309016 -0.02451056 0 0.04951053 0.01809012 0 0.04809015 0.02087783 0 0.04587781 0.02309012 0 0.04309016 0.02451056 -0.01140278 -0.01192903 0.004999995 -0.01035702 -0.01438832 0.004999995 -0.01414108 -0.003541767 0.004999995 -0.01997083 -4.82147e-4 0.004999995 -0.01974004 0.001418411 0.004999995 -0.02308291 0.002466082 0.004999995 -0.02187818 0.004657924 0.004999995 -0.01865243 0.002994 0.004999995 -0.02001976 0.006331741 0.004999995 -0.02349996 0 0.004999995 -0.02308291 -0.002466082 0.004999995 -0.01929193 -0.002272248 0.004999995 -0.02187818 -0.004657924 0.004999995 -0.01785886 -0.003541767 0.004999995 -0.01771426 0.007301449 0.004999995 -0.01695722 0.003883719 0.004999995 -0.0152176 0.008254408 0.004999995 -0.01599997 0.003999948 0.004999995 -0.01306247 0.009834527 0.004999995 -0.01504272 0.003883719 0.004999995 -0.01140278 0.01192903 0.004999995 -0.0133475 0.002994 0.004999995 -0.01035702 0.01438832 0.004999995 -0.0122599 0.001418411 0.004999995 -0.01202911 -4.82147e-4 0.004999995 -0.01270806 -0.002272248 0.004999995 -0.02001976 -0.006331741 0.004999995 -0.01771426 -0.007301449 0.004999995 -0.01599997 -0.003999948 0.004999995 -0.0152176 -0.008254408 0.004999995 -0.01306247 -0.009834527 0.004999995 -0.0122599 0.001418411 -0.004999995 -0.0133475 0.002994 -0.004999995 -0.01035702 0.01438832 -0.004999995 -0.01929193 -0.002272248 -0.004999995 -0.02308291 -0.002466082 -0.004999995 -0.01997083 -4.82147e-4 -0.004999995 -0.02349996 0 -0.004999995 -0.01974004 0.001418411 -0.004999995 -0.01599997 -0.003999948 -0.004999995 -0.01771426 -0.007301449 -0.004999995 -0.01785886 -0.003541767 -0.004999995 -0.02001976 -0.006331741 -0.004999995 -0.02187818 -0.004657924 -0.004999995 -0.01035702 -0.01438832 -0.004999995 -0.01140278 -0.01192903 -0.004999995 -0.01414108 -0.003541767 -0.004999995 -0.01306247 -0.009834527 -0.004999995 -0.0152176 -0.008254408 -0.004999995 -0.01202911 -4.82147e-4 -0.004999995 -0.01270806 -0.002272248 -0.004999995 -0.02308291 0.002466082 -0.004999995 -0.02187818 0.004657924 -0.004999995 -0.01865243 0.002994 -0.004999995 -0.02001976 0.006331741 -0.004999995 -0.01695722 0.003883719 -0.004999995 -0.01771426 0.007301449 -0.004999995 -0.01599997 0.003999948 -0.004999995 -0.0152176 0.008254408 -0.004999995 -0.01504272 0.003883719 -0.004999995 -0.01306247 0.009834527 -0.004999995 -0.01140278 0.01192903 -0.004999995</float_array>
          <technique_common>
            <accessor source="#base_link-mesh-positions-array" count="114" stride="3">
              <param name="X" type="float"/>
              <param name="Y" type="float"/>
              <param name="Z" type="float"/>
            </accessor>
          </technique_common>
        </source>
        <source id="base_link-mesh-normals">
          <float_array id="base_link-mesh-normals-array" count="498">-1 0 0 -1 0 0 -1 -2.00036e-7 0 -1 3.15349e-7 0 -1 0 0 -1 2.00036e-7 0 -1 -3.15349e-7 0 -1 2.80311e-7 0 -1 0 0 -1 0 0 -1 0 0 -1 -2.80311e-7 0 -1 0 0 0 1 0 0 0 -1 0 -1 0 0 0 1 1 0 0 1 0 0 1 0 0 1 0 0 1 0 0 1 0 0 1 0 0 1 0 0 1 0 0 1 0 0 1 0 0 1 0 0 1 0 0 1 0 0 1 0 0 -1.37903e-7 0 1 -2.63921e-7 0 1 0 0 1 0 0 1 -4.03281e-7 0 1 5.62519e-7 0 1 -3.93115e-7 0 1 1.0279e-6 0 1 -6.90562e-7 0 1 2.15556e-7 0 1 2.12698e-7 0 1 2.75205e-7 0 1 2.39208e-6 0 1 -5.03044e-7 0 1 -8.7774e-7 0 1 0 0 1 0 0 1 -5.2553e-7 0 1 1.84177e-7 0 1 4.40061e-7 0 1 -3.06813e-7 0 1 4.44476e-7 0 1 -5.2553e-7 0 -1 0 0 -1 2.07583e-7 0 -1 3.57272e-6 0 -1 4.44476e-7 0 -1 1.84177e-7 0 -1 -8.7774e-7 0 -1 2.70887e-5 0 -1 -5.03044e-7 0 -1 1.79406e-6 0 -1 -2.63921e-7 0 -1 2.1421e-7 0 -1 -2.64591e-7 0 -1 3.16768e-7 0 -1 -1.08286e-6 0 -1 -8.7377e-7 0 -1 3.38222e-7 0 -1 -7.97626e-7 0 -1 -0.3876986 0.9217863 0 -0.3876982 0.9217865 0 -0.6692366 0.7430494 0 -0.6692355 0.7430505 0 -0.8763478 0.4816789 0 -0.8763473 0.4816798 0 -0.986001 0.1667397 0 -0.9860008 0.1667408 0 -0.9860008 -0.1667408 0 -0.986001 -0.1667397 0 -0.8763473 -0.4816798 0 -0.8763478 -0.4816789 0 -0.6692355 -0.7430505 0 -0.6692366 -0.7430494 0 -0.3876982 -0.9217865 0 -0.3876986 -0.9217863 0 0.2393156 0.9709419 0 0.2393163 0.9709417 0 0.6631218 0.7485116 0 0.6631233 0.7485103 0 0.9350165 0.3546046 0 0.9350159 0.3546059 0 0.9927089 -0.1205365 0 0.9927088 -0.1205379 0 0.8229844 -0.568064 0 0.8229837 -0.5680651 0 0.4647224 -0.8854565 0 0.4647237 -0.8854558 0 0.1205369 -0.9927089 0 0.1205373 -0.9927088 0 -0.1205366 -0.9927089 0 -0.1205369 -0.9927089 0 -0.4647237 -0.8854558 0 -0.4647224 -0.8854565 0 -0.8229844 -0.568064 0 -0.8229837 -0.5680651 0 -0.9927089 -0.1205365 0 -0.9927089 -0.1205372 0 -0.9350162 0.3546052 0 -0.9350165 0.3546046 0 -0.6631225 0.7485109 0 -0.2393156 0.9709419 0 0 -0.1564348 -0.9876884 0 -0.4539895 -0.8910071 0 -0.453991 -0.8910063 0 -0.7071071 -0.7071065 0 -0.7071052 -0.7071084 0 -0.8910074 -0.4539889 0 -0.8910066 -0.4539903 0 -0.9876885 -0.1564339 0 -0.9876879 -0.1564376 0 -0.9876879 0.1564376 0 -0.9876885 0.1564339 0 -0.8910066 0.4539903 0 -0.8910074 0.4539889 0 -0.7071052 0.7071084 0 -0.7071071 0.7071065 0 -0.453991 0.8910063 0 -0.4539895 0.8910071 0 -0.1564348 0.9876884 0 0.9876879 -0.1564376 0 0.9876885 -0.1564339 0 0.8910066 -0.4539903 0 0.8910074 -0.4539889 0 0.7071052 -0.7071084 0 0.7071071 -0.7071065 0 0.453991 -0.8910063 0 0.4539895 -0.8910071 0 0.1564348 -0.9876884 0 0.1564348 0.9876884 0 0.4539895 0.8910071 0 0.453991 0.8910063 0 0.7071071 0.7071065 0 0.7071052 0.7071084 0 0.8910074 0.4539889 0 0.8910066 0.4539903 0 0.9876885 0.1564339 0 0.9876879 0.1564376 -0.991033 0.133618 0 -0.991033 0.1336175 0 -0.9202586 0.3913111 0 -0.7837635 0.6210594 0 -0.7837641 0.6210587 0 -0.5912967 0.8064542 0 -0.3566026 0.9342562 0 -0.3566018 0.9342564 0 -0.3566018 -0.9342564 0 -0.3566026 -0.9342562 0 -0.5912967 -0.8064542 0 -0.7837641 -0.6210587 0 -0.7837635 -0.6210594 0 -0.9202586 -0.3913111 0 -0.991033 -0.1336175 0 -0.991033 -0.133618 0</float_array>
          <technique_common>
            <accessor source="#base_link-mesh-normals-array" count="166" stride="3">
              <param name="X" type="float"/>
              <param name="Y" type="float"/>
              <param name="Z" type="float"/>
            </accessor>
          </technique_common>
        </source>
        <vertices id="base_link-mesh-vertices">
          <input semantic="POSITION" source="#base_link-mesh-positions"/>
        </vertices>
        <triangles count="228">
          <input semantic="VERTEX" source="#base_link-mesh-vertices" offset="0"/>
          <input semantic="NORMAL" source="#base_link-mesh-normals" offset="1"/>
          <p>0 0 1 0 2 0 2 1 1 1 3 1 4 1 5 1 3 1 0 1 6 1 1 1 1 2 6 2 7 2 1 3 7 3 8 3 9 4 10 4 11 4 11 1 10 1 12 1 9 1 13 1 10 1 10 5 13 5 14 5 10 6 14 6 15 6 5 7 16 7 3 7 3 2 16 2 17 2 3 8 17 8 2 8 18 1 19 1 12 1 15 1 20 1 10 1 10 9 20 9 21 9 10 1 21 1 3 1 3 1 21 1 22 1 3 10 22 10 4 10 8 1 23 1 1 1 1 10 23 10 24 10 1 1 24 1 12 1 12 1 24 1 25 1 12 9 25 9 18 9 19 11 26 11 12 11 12 5 26 5 27 5 12 12 27 12 11 12 9 13 11 13 28 13 28 13 11 13 29 13 22 14 21 14 30 14 30 14 21 14 31 14 32 15 33 15 2 15 2 15 33 15 0 15 34 16 35 16 24 16 24 16 35 16 25 16 34 17 30 17 35 17 35 17 30 17 31 17 34 18 36 18 33 18 33 19 36 19 37 19 33 20 37 20 38 20 38 21 37 21 39 21 34 18 33 18 30 18 30 22 33 22 32 22 30 23 32 23 40 23 41 24 31 24 42 24 42 25 31 25 43 25 41 26 44 26 31 26 31 27 44 27 28 27 31 18 28 18 35 18 40 28 45 28 30 28 30 29 45 29 46 29 30 25 46 25 47 25 48 21 49 21 50 21 28 30 29 30 35 30 35 23 29 23 48 23 35 31 48 31 51 31 51 20 48 20 50 20 52 16 53 16 54 16 55 32 56 32 57 32 57 16 56 16 58 16 58 33 56 33 59 33 58 16 59 16 60 16 57 34 61 34 55 34 55 16 61 16 62 16 55 35 62 35 63 35 63 16 62 16 64 16 63 16 64 16 65 16 60 36 59 36 66 36 66 37 59 37 67 37 66 38 67 38 68 38 68 39 67 39 69 39 68 16 69 16 70 16 70 40 69 40 71 40 70 16 71 16 72 16 72 41 71 41 73 41 72 16 73 16 74 16 74 42 73 42 75 42 74 43 75 43 76 43 12 44 74 44 1 44 1 45 74 45 76 45 1 16 76 16 53 16 53 46 76 46 77 46 53 47 77 47 54 47 64 16 78 16 65 16 65 48 78 48 79 48 65 49 79 49 80 49 80 50 79 50 81 50 80 51 81 51 54 51 54 52 81 52 82 52 54 53 82 53 52 53 83 14 84 14 85 14 86 14 87 14 88 14 88 14 87 14 89 14 88 14 89 14 90 14 91 54 92 54 93 54 93 55 92 55 94 55 93 14 94 14 86 14 86 56 94 56 95 56 86 14 95 14 87 14 96 57 97 57 98 57 98 58 97 58 99 58 98 14 99 14 91 14 91 14 99 14 100 14 91 59 100 59 92 59 83 14 85 14 101 14 98 14 102 14 96 14 96 60 102 60 101 60 96 61 101 61 3 61 3 62 101 62 85 62 3 63 85 63 10 63 89 14 103 14 90 14 90 14 103 14 104 14 90 64 104 64 105 64 105 65 104 65 106 65 105 66 106 66 107 66 107 67 106 67 108 67 107 68 108 68 109 68 109 59 108 59 110 59 109 69 110 69 111 69 111 14 110 14 112 14 111 14 112 14 84 14 84 70 112 70 113 70 84 71 113 71 85 71 66 72 108 72 106 72 66 73 106 73 60 73 60 74 106 74 104 74 60 75 104 75 58 75 58 76 104 76 103 76 58 77 103 77 57 77 57 78 103 78 89 78 57 79 89 79 61 79 61 80 89 80 87 80 61 81 87 81 62 81 62 82 87 82 95 82 62 83 95 83 64 83 64 84 95 84 94 84 64 85 94 85 78 85 78 86 94 86 92 86 78 87 92 87 79 87 80 88 91 88 65 88 65 89 91 89 93 89 65 90 93 90 63 90 63 91 93 91 86 91 63 92 86 92 55 92 55 93 86 93 88 93 55 94 88 94 56 94 56 95 88 95 90 95 56 96 90 96 59 96 59 97 90 97 105 97 59 98 105 98 67 98 67 99 105 99 107 99 67 100 107 100 69 100 69 101 107 101 109 101 69 102 109 102 71 102 71 103 109 103 111 103 71 104 111 104 73 104 73 105 111 105 84 105 73 106 84 106 75 106 75 107 84 107 83 107 75 108 83 108 76 108 76 109 83 109 101 109 76 110 101 110 77 110 77 111 101 111 102 111 77 112 102 112 54 112 54 112 102 112 98 112 54 113 98 113 80 113 80 113 98 113 91 113 22 114 30 114 47 114 22 114 47 114 4 114 4 115 47 115 46 115 4 116 46 116 5 116 5 117 46 117 45 117 5 118 45 118 16 118 16 119 45 119 40 119 16 120 40 120 17 120 17 121 40 121 32 121 17 122 32 122 2 122 0 123 33 123 38 123 0 124 38 124 6 124 6 125 38 125 39 125 6 126 39 126 7 126 7 127 39 127 37 127 7 128 37 128 8 128 8 129 37 129 36 129 8 130 36 130 23 130 23 131 36 131 34 131 23 131 34 131 24 131 9 132 28 132 44 132 9 133 44 133 13 133 13 134 44 134 41 134 13 135 41 135 14 135 14 136 41 136 42 136 14 137 42 137 15 137 15 138 42 138 43 138 15 139 43 139 20 139 20 140 43 140 31 140 20 140 31 140 21 140 25 141 35 141 51 141 25 141 51 141 18 141 18 142 51 142 50 142 18 143 50 143 19 143 19 144 50 144 49 144 19 145 49 145 26 145 26 146 49 146 48 146 26 147 48 147 27 147 27 148 48 148 29 148 27 149 29 149 11 149 12 150 10 150 74 150 74 151 10 151 85 151 74 152 85 152 72 152 72 152 85 152 113 152 72 153 113 153 70 153 70 154 113 154 112 154 70 155 112 155 68 155 68 155 112 155 110 155 68 156 110 156 66 156 66 157 110 157 108 157 79 158 92 158 81 158 81 159 92 159 100 159 81 160 100 160 82 160 82 160 100 160 99 160 82 161 99 161 52 161 52 162 99 162 97 162 52 163 97 163 53 163 53 163 97 163 96 163 53 164 96 164 1 164 1 165 96 165 3 165</p>
        </triangles>
      </mesh>
    </geometry>
  </library_geometries>
  <library_visual_scenes>
    <visual_scene id="Scene" name="Scene">
      <node id="base_link" name="base_link" type="NODE">
        <matrix sid="transform">-4.37114e-8 0 1 0 0 1 0 0 -1 0 -4.37114e-8 0 0 0 0 1</matrix>
        <instance_geometry url="#base_link-mesh" name="base_link"/>
      </node>
      <node id="Camera" name="Camera" type="NODE">
        <matrix sid="transform">0.6859207 -0.3240135 0.6515582 7.358891 0.7276763 0.3054208 -0.6141704 -6.925791 0 0.8953956 0.4452714 4.958309 0 0 0 1</matrix>
        <instance_camera url="#Camera-camera"/>
      </node>
      <node id="Light" name="Light" type="NODE">
        <matrix sid="transform">-0.2908646 -0.7711008 0.5663932 4.076245 0.9551712 -0.1998834 0.2183912 1.005454 -0.05518906 0.6045247 0.7946723 5.903862 0 0 0 1</matrix>
        <instance_light url="#Light-light"/>
      </node>
    </visual_scene>
  </library_visual_scenes>
  <scene>
    <instance_visual_scene url="#Scene"/>
  </scene>
</COLLADA>